<svg xmlns="http://www.w3.org/2000/svg" xmlns:xlink="http://www.w3.org/1999/xlink" width="151" height="41" viewBox="0 0 151 41"><defs><path id="a" d="M75.103.478H.037v39.67H150.17V.477z"/></defs><g fill="none" fill-rule="evenodd"><mask id="b" fill="#fff"><use xlink:href="#a"/></mask><path fill="#ca031a" d="M19.03 30.237c-1.513-4.195-2.983-7.96-3.503-9.04-.95-2.034-2.595-4.067-4.973-4.498.043 0 .216-.046.346-.046 4.41-.605 6.315-3.848 6.315-7.137 0-2.81-1.557-7.222-8.737-7.222H.995c-.52 0-.995.433-.995.95v27.206c0 .52.476.955.995.955H3.07a.96.96 0 0 0 .95-.954V18.3h2.034c2.94 0 4.283 1.818 5.278 3.677 1.21 2.25 2.032 5.363 3.157 8.736.172.564.56.695 1.036.695h2.856c.778 0 .908-.478.648-1.168M13.106 10.08c0 2.984-1.99 4.8-5.19 4.8H4.02V5.885h4.37c3.113 0 4.714 1.86 4.714 4.196m21.425 10.9c0-7.96-3.46-10.77-7.87-10.77-4.758 0-7.958 4.11-7.958 10.64 0 7.095 3.33 10.77 9.255 10.77 2.51 0 3.98-.39 5.363-.995.476-.216.736-.648.563-1.168l-.476-1.383c-.173-.476-.52-.82-1.168-.606-1.255.346-2.423.736-4.067.736-3.893 0-5.19-2.25-5.363-6.272h10.77a.96.96 0 0 0 .95-.953m-4.02-2.034h-7.7c.432-4.496 2.38-5.578 3.98-5.578 2.68 0 3.632 2.81 3.72 5.578M53.296 33.35c0-3.59-2.51-5.623-6.444-5.623h-3.59c-1.558 0-2.25-.26-2.25-1.167 0-.476.346-.952.78-1.34a8.416 8.416 0 0 0 2.12.26c4.8 0 7.87-2.9 7.87-7.657 0-1.47-.65-2.9-1.557-4.153l1.427-.172c.52-.044.866-.347.866-.91v-1.123c0-.562-.347-.996-.953-.996h-4.974c-.91 0-1.773-.216-2.682-.216-4.627 0-7.785 2.724-7.785 7.57 0 2.852 1.212 5.014 3.114 6.272-1.038.95-1.903 2.075-1.903 3.59 0 2.506 2.205 3.37 4.757 3.37h4.196c2.335 0 3.244.955 3.244 2.728 0 1.902-2.076 3.07-4.714 3.07-2.033 0-4.282-.39-4.63-2.682-.085-.562-.43-.865-.95-.908l-2.163-.087a.934.934 0 0 0-.952.952c.044 4.67 4.413 6.054 8.564 6.054 3.98 0 8.607-1.816 8.607-6.834m-5.493-15.615c0 3.894-1.86 4.715-3.85 4.715-2.076 0-3.806-.692-3.806-4.715 0-3.85 1.73-4.54 3.806-4.54 2.12 0 3.85.735 3.85 4.54M59.628 3.16c0-1.47-1.168-2.682-2.64-2.682a2.667 2.667 0 0 0-2.68 2.682c0 1.514 1.168 2.725 2.68 2.725 1.472 0 2.64-1.21 2.64-2.725m-.69 27.29V11.42c0-.517-.478-.95-.953-.95h-1.947c-.52 0-.995.433-.995.952v19.03c0 .52.476.953.995.953h1.947c.475 0 .952-.434.952-.954m18.78-9.513c0-6.617-3.2-10.727-8.392-10.727-5.19 0-8.435 4.066-8.435 10.727 0 6.705 3.244 10.683 8.435 10.683 5.233 0 8.39-4.066 8.39-10.683m-4.108 0c0 5.234-1.644 7.396-4.37 7.396-2.68 0-4.324-2.162-4.324-7.396 0-5.147 1.644-7.396 4.325-7.396 2.725 0 4.37 2.25 4.37 7.397m25.06 2.27c0-3.764-2.076-6.79-6.23-7.267 3.504-1.04 4.975-3.2 4.975-6.445 0-4.282-2.898-7.223-7.916-7.223h-8.39c-.52 0-.996.432-.996.95V30.43c0 .518.477.952.996.952h8.823c5.45 0 8.737-2.984 8.737-8.176zm-5.364-13.15c0 2.68-1.644 4.37-4.89 4.37h-4.28V5.73h4.585c3.07 0 4.584 1.557 4.584 4.326zm1.037 12.717c0 3.158-1.77 5.06-4.756 5.06h-5.45V17.67h4.627c3.507 0 5.58 2.163 5.58 5.104zm21.313 7.656l-.26-1.256c-.258-1.296-.215-2.465-.215-3.545v-7.527c0-3.504-.563-7.915-7.44-7.915-1.86 0-3.98.475-5.234.822-.522.13-.735.56-.604 1.124l.342 1.6c.13.563.564.865 1.128.692 1.166-.302 2.464-.736 4.15-.736 3.073 0 3.763 1.17 3.763 3.678v1.038l-4.755.303c-3.505.26-6.488 2.074-6.488 6.702 0 3.89 2.12 6.185 5.577 6.185 2.38 0 4.63-.864 5.97-2.985l.303 1.904c.085.606.475.866.995.866h1.99c.563 0 .864-.39.778-.952zm-4.37-5.97c0 1.6-1.772 3.98-4.54 3.98-1.598 0-2.726-.95-2.726-3.028 0-3.244 1.904-4.022 4.543-4.11l2.723-.086v3.244zm21.4 5.97V15.594c0-3.243-2.077-5.406-5.32-5.406-2.293 0-4.108.864-5.926 2.984l-.433-1.947c-.13-.562-.432-.78-1.037-.78h-1.298c-.52 0-.995.39-.995.91V30.43c0 .518.476.952.994.952h1.99a.963.963 0 0 0 .952-.952V18.665c0-2.897 2.033-5.104 4.668-5.104 1.773 0 2.466.91 2.466 2.9v13.97c0 .52.477.952.997.952h1.988a.962.962 0 0 0 .953-.952zm17.35-.173l-7.093-10.814 5.796-7.915c.345-.476.13-1.082-.477-1.082h-2.766c-.61 0-.997.304-1.256.736l-5.234 8V1.623a.932.932 0 0 0-.95-.95h-1.95a.934.934 0 0 0-.95.95V30.43c0 .518.434.952.95.952h1.95a.96.96 0 0 0 .95-.952V20.093l6.272 10.467c.302.518.69.822 1.167.822h3.073c.605 0 .82-.65.517-1.125z" mask="url(#b)"/></g></svg>
