<svg xmlns="http://www.w3.org/2000/svg" viewBox="0 0 150.16 35.1" id="logo-vl"><path d="M15.79-.33H1.65S0-.33 0 1.1v32.57a1.48 1.48 0 001.65 1.43h6.16v-6.54a.48.48 0 000-.12c0-.18 0-.42-.15-.51L7 27.5a10.14 10.14 0 01-2.17-1.93 7 7 0 01-1.35-3.07 4 4 0 01.24-2.3 2.63 2.63 0 01.48-.69.65.65 0 00.08-.78 8.6 8.6 0 01-.49-1.27 3.48 3.48 0 01-.1-1.29 2 2 0 01.5-1.17c.24-.25.54-.29.73-.69a7.2 7.2 0 01-.39-2.17 3.74 3.74 0 01.08-1 1.34 1.34 0 01.87-.86c.16-.09.33-.13.49-.21s.19-.14.19-.49c0-1.56.21-3 1-3.8a1.93 1.93 0 011.44-.46 2 2 0 011.46.52c.87.77 1.08 2.24 1.08 3.8 0 .35 0 .4.21.49l.51.21a1.39 1.39 0 01.91.86 3 3 0 01.08 1 7.15 7.15 0 01-.4 2.17c.19.4.51.44.76.7a2 2 0 01.53 1.14 3.35 3.35 0 01-.11 1.3 7.53 7.53 0 01-.51 1.26.62.62 0 00.08.78 2.45 2.45 0 01.5.69 3.75 3.75 0 01.3 2.27 6.76 6.76 0 01-1.45 3.07 10.3 10.3 0 01-2.27 1.92l-.66.44c-.12.09-.11.32-.15.5a.48.48 0 000 .12v6.54h6.37s1.65 0 1.65-1.43V1.1a1.48 1.48 0 00-1.7-1.43z" fill="#2d8f37"/><g fill="#25292a"><path d="M25.5 5.28H28l3.93 10 3.91-10h2.48l-5.38 13.11h-2zM45 18.3v-1.21a4 4 0 01-3.17 1.41c-1.86 0-3.5-1.06-3.5-3 0-2.17 1.7-3.22 4-3.22a8.38 8.38 0 012.72.4v-.19c0-1.35-.85-2.1-2.42-2.1a6.65 6.65 0 00-2.81.62l-.64-1.81A8.63 8.63 0 0143 8.34c2.9 0 4.32 1.53 4.32 4.15v5.82zm.06-4.11a6.45 6.45 0 00-2.26-.4c-1.41 0-2.25.58-2.25 1.52 0 .93.84 1.45 1.9 1.45 1.49 0 2.61-.84 2.61-2.06zM50 8.48h2.25V10a3.56 3.56 0 013.08-1.73c2.21 0 3.5 1.49 3.5 3.78v6.25h-2.3v-5.58c0-1.53-.76-2.4-2.1-2.4a2.16 2.16 0 00-2.22 2.43v5.55H50zm17.36-3.2h2.29v10.93h6.86v2.09h-9.14zM84.64 18.3v-1.21a4 4 0 01-3.17 1.41c-1.86 0-3.5-1.06-3.5-3 0-2.17 1.7-3.22 4-3.22a8.38 8.38 0 012.72.4v-.19c0-1.35-.86-2.1-2.42-2.1a6.65 6.65 0 00-2.81.62l-.64-1.81a8.61 8.61 0 013.74-.79c2.91 0 4.32 1.53 4.32 4.15v5.82zm.06-4.11a6.49 6.49 0 00-2.26-.4c-1.41 0-2.25.58-2.25 1.52 0 .93.84 1.45 1.9 1.45 1.49 0 2.61-.84 2.61-2.06zM89.55 8.48h2.26V10a3.54 3.54 0 013.07-1.73c2.22 0 3.5 1.49 3.5 3.78v6.25h-2.25v-5.58c0-1.53-.77-2.4-2.11-2.4a2.17 2.17 0 00-2.22 2.43v5.55h-2.25zM100.3 17l1-1.52a5.55 5.55 0 003.22 1.21c1 0 1.53-.4 1.53-1.06 0-.76-1-1-2.2-1.38-1.45-.39-3.07-1-3.07-2.88 0-1.86 1.54-3 3.5-3a6.74 6.74 0 013.61 1.12L107 11a5.72 5.72 0 00-2.77-.93c-.88 0-1.38.4-1.38 1 0 .71 1.06 1 2.22 1.38 1.43.45 3 1.1 3 2.86 0 2.06-1.58 3.09-3.65 3.09a6.9 6.9 0 01-4.12-1.4zm9.58-3.56a5.06 5.06 0 015-5.15h.12a4.88 4.88 0 013.91 1.71l-1.4 1.51a3.28 3.28 0 00-2.51-1.28 2.94 2.94 0 00-2.83 3.12 3 3 0 003 3.17 3.5 3.5 0 002.55-1.23l1.28 1.38a5.14 5.14 0 01-9.1-3.24zm11.17-8.72h2.25V10a3.56 3.56 0 013.08-1.73c2.21 0 3.5 1.49 3.5 3.78v6.25h-2.26v-5.58c0-1.53-.76-2.4-2.1-2.4a2.16 2.16 0 00-2.22 2.43v5.55h-2.25zM132.06 13.44a5.24 5.24 0 0110.48 0 5.13 5.13 0 01-5.17 5.11h-.1a5.08 5.08 0 01-5.21-4.95zm8.23 0a3 3 0 00-2.9-3.17h-.12a3 3 0 00-3 3.12 3 3 0 002.92 3.16h.08a3 3 0 003.02-3.11zM145.3 15.58v-5.17h-1.25V8.48h1.25v-2.7h2.25v2.7h2.65v1.93h-2.65v4.82a1.08 1.08 0 001.22 1.23 3.07 3.07 0 001.39-.34V18a4 4 0 01-2 .51c-1.68-.04-2.86-.77-2.86-2.93z"/></g><g fill="#25292a"><path d="M32 25.44c-1.05-.23-1.3-.48-1.3-.93 0-.43.4-.77 1-.77a2.08 2.08 0 011.37.52l.32-.42a2.51 2.51 0 00-1.68-.58 1.41 1.41 0 00-1.57 1.3c0 .78.51 1.14 1.6 1.38s1.24.46 1.24.9c0 .47-.42.81-1.06.81a2.24 2.24 0 01-1.61-.65l-.34.4a2.82 2.82 0 002 .76c.95 0 1.63-.53 1.63-1.35-.05-.75-.54-1.14-1.6-1.37zm4.8-2.13h.54v4.77h-.54zm7.56 3.82l-3.01-3.82h-.5v4.77h.53v-3.91l3.07 3.91h.43v-4.77h-.52v3.82zM50 23.31h-1.66v4.77H50a2.38 2.38 0 002.53-2.38A2.37 2.37 0 0050 23.31zm2 2.4a1.84 1.84 0 01-2 1.87h-1.12v-3.77H50a1.85 1.85 0 012 1.89zM57.42 25.44c-1.05-.23-1.29-.48-1.29-.93 0-.43.39-.77 1-.77a2.11 2.11 0 011.38.52l.31-.42a2.46 2.46 0 00-1.67-.58 1.41 1.41 0 00-1.57 1.3c0 .78.5 1.14 1.6 1.38s1.24.46 1.24.9c0 .47-.42.81-1.06.81a2.28 2.28 0 01-1.63-.65l-.33.4a2.79 2.79 0 002 .76c.94 0 1.62-.53 1.62-1.35-.02-.75-.54-1.14-1.6-1.37zm9.95-1.76l.13.44.9-.28v4.24h.53v-4.8h-.39l-1.17.4zm5.1.12h2.62l-2.15 4.28h.59l2.17-4.37v-.4h-3.23v.49zm7.98 1.57L82 23.71v-.4h-3v.49h2.33l-1.5 1.69.11.32h.3c.79 0 1.34.33 1.34.92a1 1 0 01-1 .92 1.7 1.7 0 01-1.53-.65l-.4.35a2.18 2.18 0 001.78.85A1.48 1.48 0 0082 26.73c0-.89-.72-1.29-1.55-1.36zm4.72-2.06v.49h2.62l-2.15 4.28h.6l2.16-4.37v-.4h-3.23z"/></g></svg>